<?xml version="1.0" standalone="no"?>
<!DOCTYPE svg PUBLIC "-//W3C//DTD SVG 20010904//EN"
 "http://www.w3.org/TR/2001/REC-SVG-20010904/DTD/svg10.dtd">
<svg version="1.0" xmlns="http://www.w3.org/2000/svg"
 width="840.000000pt" height="859.000000pt" viewBox="0 0 840.000000 859.000000"
 preserveAspectRatio="xMidYMid meet">

<g transform="translate(0.000000,859.000000) scale(0.100000,-0.100000)"
fill="#000000" stroke="none">
<path d="M3918 6555 c-3 -3 -68 -12 -144 -20 -77 -8 -161 -19 -189 -25 -27 -5
-90 -16 -140 -25 -140 -24 -259 -49 -309 -64 -17 -5 -51 -15 -76 -21 -54 -15
-138 -40 -165 -50 -11 -4 -42 -16 -70 -25 -27 -9 -63 -23 -80 -29 -16 -7 -46
-19 -65 -26 -19 -7 -59 -23 -88 -36 -29 -13 -57 -24 -62 -24 -6 0 -10 -4 -10
-10 0 -5 -5 -10 -11 -10 -11 0 -280 -130 -289 -140 -3 -3 -25 -15 -50 -27 -96
-48 -244 -142 -317 -203 -7 -5 -15 -10 -18 -10 -3 0 -18 -11 -33 -25 -15 -14
-32 -25 -39 -25 -7 0 -13 -4 -13 -8 0 -4 -14 -16 -32 -26 -32 -19 -58 -39 -87
-66 -9 -8 -35 -28 -56 -44 -22 -17 -50 -40 -62 -53 -12 -13 -24 -23 -27 -23
-9 0 -86 -73 -225 -212 -143 -144 -161 -163 -161 -173 0 -4 -15 -21 -33 -38
-18 -18 -53 -57 -77 -87 -25 -30 -47 -57 -50 -60 -3 -3 -36 -48 -74 -100 -38
-52 -73 -96 -77 -98 -5 -2 -9 -8 -9 -14 0 -9 -42 -69 -68 -96 -6 -7 -12 -20
-12 -28 0 -8 -4 -14 -9 -14 -5 0 -11 -8 -15 -17 -6 -20 -27 -55 -37 -63 -4 -3
-25 -39 -47 -80 -22 -41 -55 -102 -74 -135 -69 -122 -168 -334 -168 -359 0 -9
-4 -16 -8 -16 -4 0 -16 -24 -26 -52 -11 -29 -23 -57 -27 -62 -5 -6 -9 -19 -9
-31 0 -12 -4 -25 -9 -31 -5 -5 -16 -36 -25 -69 -10 -33 -21 -73 -26 -90 -5
-16 -12 -47 -16 -68 -3 -20 -10 -40 -15 -43 -5 -3 -9 -18 -9 -33 0 -15 -4 -31
-9 -37 -9 -9 -27 -79 -37 -139 -3 -16 -9 -39 -14 -50 -10 -20 -28 -144 -37
-245 -2 -30 -8 -64 -13 -75 -19 -46 -33 -259 -37 -567 l-4 -328 4176 0 4176 0
-4 313 c-4 312 -21 597 -37 607 -4 3 -10 28 -13 55 -15 144 -30 240 -38 243
-5 2 -9 14 -9 27 0 42 -68 295 -91 337 -5 10 -9 29 -9 43 0 14 -4 33 -9 43 -5
9 -16 42 -26 72 -9 30 -24 71 -32 90 -8 19 -18 44 -23 55 -4 11 -15 38 -25 60
-9 22 -20 49 -24 60 -7 18 -58 119 -138 275 -15 30 -30 57 -33 60 -3 3 -14 23
-25 45 -26 53 -164 275 -181 293 -8 7 -14 16 -14 20 0 4 -11 20 -25 36 -14 16
-25 32 -25 35 0 3 -14 22 -30 41 -17 19 -33 43 -36 53 -3 9 -10 17 -15 17 -5
0 -9 5 -9 11 0 6 -16 30 -36 53 -86 98 -101 115 -134 155 -19 23 -45 53 -57
66 -13 13 -23 26 -23 29 0 4 -57 60 -199 196 -77 74 -190 173 -241 211 -19 15
-48 39 -65 53 -16 14 -38 29 -47 32 -10 3 -18 10 -18 15 0 5 -7 9 -15 9 -8 0
-15 4 -15 8 0 5 -16 17 -35 28 -19 10 -35 22 -35 26 0 5 -6 8 -14 8 -8 0 -16
3 -18 8 -1 4 -28 23 -58 42 -30 19 -57 37 -60 40 -9 10 -45 31 -62 36 -10 4
-18 10 -18 15 0 5 -5 9 -11 9 -6 0 -25 11 -42 24 -18 13 -68 42 -112 66 -44
23 -81 46 -83 51 -2 5 -10 9 -17 9 -16 0 -79 32 -83 43 -2 4 -8 7 -13 7 -9 0
-107 43 -151 66 -14 8 -33 14 -42 14 -9 0 -16 5 -16 10 0 6 -11 10 -24 10 -14
0 -28 5 -31 10 -3 6 -14 10 -23 10 -9 0 -30 7 -46 15 -15 8 -37 15 -47 15 -10
0 -20 4 -24 9 -3 5 -20 13 -37 17 -18 3 -39 10 -48 14 -34 17 -117 40 -142 40
-16 0 -28 5 -28 10 0 6 -9 10 -21 10 -20 0 -105 24 -144 40 -11 5 -38 11 -60
14 -22 2 -76 12 -120 21 -44 9 -109 20 -145 25 -36 5 -74 11 -85 14 -70 21
-829 48 -847 31z m797 -54 c75 -15 176 -33 215 -38 19 -2 44 -8 55 -12 11 -5
67 -18 125 -29 58 -11 148 -33 200 -47 52 -15 113 -32 135 -37 22 -6 44 -15
50 -19 5 -5 22 -9 37 -9 15 0 28 -4 28 -9 0 -4 15 -11 33 -14 18 -3 53 -14 78
-25 24 -10 64 -27 89 -37 114 -44 481 -227 508 -252 7 -7 20 -13 28 -13 8 0
14 -4 14 -9 0 -5 8 -11 18 -15 17 -6 53 -27 62 -36 3 -3 37 -26 75 -49 39 -24
72 -48 73 -53 2 -4 8 -8 14 -8 10 0 83 -52 123 -87 7 -7 18 -13 24 -13 6 0 11
-4 11 -9 0 -5 8 -12 18 -16 9 -3 35 -22 58 -43 23 -20 60 -53 84 -72 23 -19
61 -51 83 -70 60 -51 307 -299 344 -346 17 -21 39 -49 50 -61 10 -12 41 -50
68 -85 28 -35 53 -64 58 -66 4 -2 7 -9 7 -15 0 -7 13 -26 28 -43 60 -69 69
-82 88 -112 10 -18 22 -32 25 -32 4 0 10 -8 13 -18 4 -10 14 -27 24 -38 9 -10
26 -36 37 -56 11 -21 23 -38 26 -38 4 0 10 -11 13 -25 4 -14 11 -25 16 -25 6
0 10 -7 10 -15 0 -8 3 -15 8 -15 4 0 16 -19 27 -43 11 -23 22 -44 25 -47 13
-11 190 -377 190 -393 0 -9 5 -17 10 -17 6 0 10 -6 10 -14 0 -7 7 -27 15 -42
8 -16 15 -36 15 -45 0 -9 3 -19 7 -23 7 -7 26 -55 50 -131 8 -27 22 -64 29
-82 8 -17 14 -38 14 -47 0 -9 4 -24 9 -34 13 -25 41 -121 41 -143 0 -10 4 -20
9 -23 5 -3 11 -20 14 -38 4 -18 13 -67 22 -108 27 -124 59 -330 77 -505 7 -60
12 -240 12 -400 l1 -290 -4140 0 -4140 0 -3 210 c-4 230 17 535 50 725 5 30
13 80 18 110 19 116 19 115 51 245 6 22 15 64 21 93 6 28 15 52 20 52 4 0 8
11 8 25 0 14 4 33 9 43 5 9 16 44 26 77 9 33 21 69 25 80 24 61 40 113 40 128
0 9 5 17 10 17 6 0 10 7 10 16 0 16 14 52 56 139 13 28 24 56 24 63 0 6 3 12
8 12 4 0 16 21 26 48 11 26 22 49 26 52 3 3 14 25 25 50 11 25 22 47 25 50 3
3 14 23 25 45 11 22 22 42 25 45 3 3 11 16 17 30 7 14 24 43 38 65 13 22 29
49 34 60 5 11 30 51 55 89 25 38 46 72 46 77 0 4 3 9 8 11 4 2 23 23 42 48 19
25 37 47 40 50 3 3 23 30 45 60 22 30 42 57 45 60 3 3 21 25 40 50 19 25 38
47 42 48 5 2 8 8 8 13 0 6 12 24 28 40 15 16 37 41 49 54 13 13 23 27 23 30 0
8 256 260 320 315 29 25 61 53 72 63 10 9 21 17 24 17 4 0 14 8 23 18 9 10 36
33 61 52 25 19 47 38 48 42 2 5 8 8 13 8 9 0 21 8 54 38 7 6 18 12 24 12 6 0
11 3 11 8 0 4 16 16 35 26 19 11 35 23 35 28 0 4 6 8 14 8 8 0 16 3 18 8 5 11
95 72 107 72 6 0 11 4 11 9 0 5 11 12 25 15 14 4 25 11 25 16 0 6 7 10 15 10
8 0 15 3 15 8 0 4 21 16 48 26 26 11 49 22 52 25 15 18 362 191 383 191 9 0
17 5 17 10 0 6 6 10 14 10 7 0 27 7 42 15 16 8 37 15 47 15 9 0 17 5 17 10 0
6 6 10 14 10 7 0 27 7 42 15 16 8 38 15 50 15 11 0 24 3 27 7 11 10 109 43
129 43 10 0 18 4 18 9 0 5 15 11 33 13 38 6 123 27 152 39 24 9 57 16 147 32
36 7 70 15 74 20 4 4 23 7 43 7 20 0 52 4 71 10 54 14 184 32 300 40 143 11
833 4 895 -9z"/>
<path d="M4197 6403 c-4 -3 -7 -120 -7 -260 0 -210 2 -253 14 -253 8 0 17 7
20 16 8 20 8 452 0 482 -6 22 -15 27 -27 15z"/>
<path d="M4332 6388 c-18 -18 -16 -174 2 -181 23 -9 26 2 26 94 0 88 -7 108
-28 87z"/>
<path d="M3916 6298 c10 -149 37 -147 32 3 -3 71 -6 84 -21 87 -16 3 -17 -3
-11 -90z"/>
<path d="M3990 6296 c0 -80 3 -96 15 -96 13 0 15 15 13 92 -2 62 -7 93 -15 96
-10 3 -13 -20 -13 -92z"/>
<path d="M4052 6298 c2 -75 6 -93 18 -93 12 0 15 17 15 90 0 78 -2 90 -18 93
-16 3 -18 -5 -15 -90z"/>
<path d="M4120 6300 c0 -83 1 -90 20 -90 19 0 20 7 20 90 0 83 -1 90 -20 90
-19 0 -20 -7 -20 -90z"/>
<path d="M4260 6300 c0 -73 3 -90 15 -90 12 0 15 17 15 90 0 73 -3 90 -15 90
-12 0 -15 -17 -15 -90z"/>
<path d="M4395 6304 c-5 -68 -4 -88 6 -95 11 -7 16 9 24 74 11 89 10 107 -10
107 -9 0 -15 -27 -20 -86z"/>
<path d="M4466 6374 c-10 -27 -7 -172 5 -179 15 -10 16 -7 22 76 4 42 7 80 8
85 6 34 -23 49 -35 18z"/>
<path d="M3705 6371 c-3 -6 0 -51 6 -101 9 -69 15 -90 27 -90 13 0 14 13 8 86
-6 80 -25 130 -41 105z"/>
<path d="M3774 6328 c15 -124 18 -138 33 -138 13 0 15 12 8 81 -8 95 -12 109
-32 109 -13 0 -14 -9 -9 -52z"/>
<path d="M3844 6333 c3 -27 8 -84 11 -128 9 -132 17 -175 30 -175 10 0 11 32
7 138 -2 75 -8 145 -13 154 -5 9 -9 26 -9 37 0 12 -7 21 -15 21 -13 0 -15 -9
-11 -47z"/>
<path d="M4532 6293 c-6 -49 -13 -128 -15 -176 -3 -74 -1 -87 12 -85 9 2 16
16 17 38 2 19 8 85 13 145 14 143 14 165 -2 165 -9 0 -17 -28 -25 -87z"/>
<path d="M4616 6372 c-4 -8 -26 -153 -26 -177 0 -31 27 -2 38 40 21 78 12 176
-12 137z"/>
<path d="M4676 6358 c-3 -7 -6 -50 -9 -95 -3 -60 0 -83 8 -83 13 0 40 133 34
165 -5 22 -27 32 -33 13z"/>
<path d="M3643 6272 c8 -106 12 -118 34 -97 13 13 13 23 4 60 -6 24 -11 57
-11 73 0 16 -7 36 -17 43 -15 13 -16 7 -10 -79z"/>
<path d="M4752 6348 c-7 -7 -12 -36 -12 -64 0 -29 -4 -64 -9 -77 -8 -19 -6
-27 4 -31 18 -7 23 2 29 50 18 138 16 150 -12 122z"/>
<path d="M3574 6288 c16 -118 18 -128 32 -128 17 0 17 19 2 110 -8 48 -16 70
-26 70 -12 0 -13 -11 -8 -52z"/>
<path d="M4816 6328 c-5 -19 -26 -143 -26 -157 0 -24 27 -9 38 22 15 41 16
147 2 147 -6 0 -12 -6 -14 -12z"/>
<path d="M4883 6321 c-6 -10 -15 -55 -18 -100 -4 -45 -12 -84 -16 -87 -5 -3
-9 -25 -9 -49 0 -24 -4 -46 -9 -49 -5 -3 -12 -36 -16 -73 -4 -37 -11 -78 -16
-92 -7 -17 -6 -27 2 -32 21 -13 37 1 42 39 15 103 28 169 37 184 6 10 10 36
10 59 0 22 4 48 9 57 5 9 11 48 12 86 4 71 -6 92 -28 57z"/>
<path d="M3426 6313 c4 -10 12 -53 17 -95 6 -49 15 -79 24 -82 20 -8 28 22 15
58 -7 18 -12 48 -12 67 -1 36 -19 69 -40 69 -8 0 -9 -6 -4 -17z"/>
<path d="M3497 6283 c2 -26 8 -64 13 -83 5 -19 11 -55 14 -80 5 -40 15 -93 44
-228 11 -51 22 -64 41 -53 12 8 11 21 -3 90 -9 45 -16 93 -16 106 0 14 -4 25
-9 25 -5 0 -11 19 -15 43 -26 204 -30 222 -52 225 -20 3 -21 -1 -17 -45z"/>
<path d="M4952 6308 c-6 -13 -13 -48 -15 -78 -2 -30 -8 -63 -12 -72 -5 -14 -2
-18 13 -18 17 0 22 10 31 63 5 34 13 77 17 95 8 39 -16 46 -34 10z"/>
<path d="M3367 6303 c-3 -5 -1 -30 5 -58 5 -27 12 -65 15 -82 7 -42 33 -44 33
-3 0 16 -4 39 -9 52 -6 13 -12 40 -16 61 -5 34 -18 47 -28 30z"/>
<path d="M5011 6253 c-23 -111 -24 -123 -9 -123 18 0 38 55 38 103 0 20 4 38
10 42 12 8 1 35 -14 35 -7 0 -18 -25 -25 -57z"/>
<path d="M3296 6248 c4 -24 11 -51 15 -60 5 -9 9 -30 9 -47 0 -22 5 -31 16
-31 15 0 16 9 11 69 -6 71 -22 111 -45 111 -9 0 -10 -11 -6 -42z"/>
<path d="M5090 6267 c0 -13 -4 -27 -9 -32 -14 -15 -30 -126 -18 -122 6 2 15
12 21 23 6 10 14 21 17 24 4 3 10 33 14 68 6 53 5 62 -9 62 -10 0 -16 -9 -16
-23z"/>
<path d="M3223 6258 c9 -34 33 -120 42 -145 4 -13 11 -20 16 -17 12 7 11 51
-1 59 -5 3 -10 21 -10 40 0 43 -19 85 -38 85 -10 0 -13 -7 -9 -22z"/>
<path d="M5160 6261 c0 -11 -4 -23 -10 -26 -5 -3 -10 -21 -10 -39 0 -17 -4
-36 -9 -41 -16 -18 -22 -65 -9 -65 19 0 47 70 65 163 4 20 1 27 -11 27 -9 0
-16 -8 -16 -19z"/>
<path d="M3150 6246 c0 -8 4 -17 9 -20 5 -3 11 -20 14 -38 15 -85 31 -148 39
-148 4 0 8 -15 8 -34 0 -19 5 -38 10 -41 6 -3 10 -15 10 -26 0 -11 7 -19 16
-19 17 0 17 3 -6 105 -6 28 -15 59 -20 70 -5 11 -11 31 -14 45 -20 100 -28
120 -47 120 -10 0 -19 -6 -19 -14z"/>
<path d="M5226 6248 c-8 -25 -28 -103 -32 -128 -3 -14 -10 -34 -15 -45 -5 -11
-14 -40 -20 -65 -5 -25 -13 -55 -16 -67 -4 -16 -1 -23 9 -23 14 0 38 52 38 83
0 10 4 25 10 35 9 17 27 89 37 150 3 18 9 35 14 38 5 3 9 12 9 20 0 17 -29 19
-34 2z"/>
<path d="M3097 6193 c3 -27 10 -49 15 -51 4 -2 8 -19 8 -37 0 -30 23 -55 34
-37 6 10 -12 102 -24 124 -6 10 -10 25 -10 33 0 8 -7 15 -15 15 -12 0 -13 -9
-8 -47z"/>
<path d="M5290 6215 c0 -14 -4 -33 -10 -43 -5 -9 -13 -38 -18 -64 -8 -39 -7
-48 5 -48 7 0 15 6 17 13 2 6 8 28 14 47 6 19 14 54 18 78 5 35 4 42 -10 42
-10 0 -16 -9 -16 -25z"/>
<path d="M3020 6209 c0 -12 25 -93 44 -142 6 -15 15 -25 21 -23 12 4 8 77 -6
91 -5 5 -9 18 -9 30 -1 24 -22 55 -39 55 -6 0 -11 -5 -11 -11z"/>
<path d="M5360 6201 c0 -11 -4 -23 -10 -26 -5 -3 -10 -17 -10 -30 0 -13 -4
-27 -10 -30 -12 -7 -14 -75 -2 -75 15 0 31 43 59 158 4 16 1 22 -11 22 -9 0
-16 -8 -16 -19z"/>
<path d="M2950 6196 c0 -9 4 -24 9 -34 5 -9 17 -43 27 -75 20 -64 38 -87 47
-63 4 9 2 18 -3 21 -6 4 -10 19 -10 36 0 16 -4 29 -8 29 -5 0 -13 21 -18 47
-6 33 -14 49 -26 51 -11 2 -18 -3 -18 -12z"/>
<path d="M5419 6168 c-6 -24 -15 -51 -20 -60 -5 -10 -9 -27 -9 -37 0 -11 -5
-23 -10 -26 -13 -8 -3 -25 16 -25 8 0 14 8 14 18 0 9 7 30 15 46 8 15 15 39
15 52 0 12 5 26 10 29 15 10 12 45 -5 45 -8 0 -19 -17 -26 -42z"/>
<path d="M2895 6143 c3 -21 11 -42 16 -47 5 -6 9 -19 9 -29 0 -22 30 -77 42
-77 11 0 10 48 -1 54 -5 3 -12 21 -15 40 -8 43 -34 96 -48 96 -6 0 -8 -14 -3
-37z"/>
<path d="M5503 6168 c-30 -47 -70 -164 -60 -175 10 -9 46 40 47 63 0 11 3 24
7 28 13 13 31 86 23 91 -5 3 -12 0 -17 -7z"/>
<path d="M2820 6143 c0 -16 19 -76 40 -128 5 -11 16 -42 25 -70 21 -63 28 -81
49 -128 9 -21 16 -47 16 -57 0 -11 5 -20 10 -20 6 0 10 -10 10 -23 0 -25 17
-47 37 -47 8 0 13 13 13 35 0 19 -4 35 -10 35 -5 0 -10 7 -10 16 0 9 -7 32
-16 52 -9 21 -21 48 -26 62 -6 14 -16 39 -23 55 -7 17 -25 68 -40 115 -26 81
-48 120 -67 120 -4 0 -8 -8 -8 -17z"/>
<path d="M5552 6138 c-15 -32 -42 -116 -42 -133 0 -8 -4 -15 -10 -15 -5 0 -10
-7 -10 -16 0 -24 -33 -114 -42 -114 -5 0 -8 -8 -8 -19 0 -10 -7 -32 -15 -47
-8 -16 -15 -37 -15 -46 0 -9 -4 -20 -10 -23 -5 -3 -10 -17 -10 -31 0 -32 36
-33 45 -1 3 12 10 31 14 42 5 11 16 47 26 80 10 33 21 65 25 70 3 6 14 37 25
70 10 33 22 64 27 70 4 5 8 18 8 30 0 11 7 33 15 49 8 15 15 35 15 42 0 22
-25 16 -38 -8z"/>
<path d="M2757 6123 c-4 -3 -3 -11 1 -17 5 -6 17 -38 27 -71 22 -71 39 -95 56
-78 8 8 7 20 -5 44 -9 18 -16 37 -16 42 0 6 -8 28 -17 49 -16 36 -31 46 -46
31z"/>
<path d="M5622 6118 c-7 -7 -12 -22 -12 -34 0 -13 -4 -26 -10 -29 -5 -3 -10
-15 -10 -26 0 -10 -6 -28 -12 -39 -14 -21 -1 -45 17 -32 10 6 55 134 56 157 1
15 -15 17 -29 3z"/>
<path d="M2695 6078 c4 -18 11 -37 15 -43 4 -5 10 -21 13 -35 7 -27 42 -70 57
-70 6 0 5 12 -2 28 -20 50 -35 87 -48 120 -7 17 -19 32 -27 32 -11 0 -13 -8
-8 -32z"/>
<path d="M5681 6068 c-54 -120 -59 -133 -48 -137 14 -5 57 45 57 68 0 9 4 21
9 27 5 5 13 26 16 47 10 51 -10 48 -34 -5z"/>
<path d="M2635 6070 c-13 -21 48 -160 71 -160 14 0 19 22 8 33 -4 3 -16 34
-28 68 -21 61 -38 81 -51 59z"/>
<path d="M5751 6053 c-8 -16 -20 -40 -27 -55 -8 -14 -14 -33 -14 -42 0 -9 -4
-16 -10 -16 -5 0 -10 -7 -10 -15 0 -26 27 -16 47 18 26 45 46 118 36 128 -6 6
-15 -2 -22 -18z"/>
<path d="M5829 6040 c-9 -5 -29 -40 -44 -77 -16 -37 -33 -70 -38 -72 -5 -2 -3
-7 4 -12 12 -7 59 35 59 54 0 4 11 30 24 57 25 51 23 65 -5 50z"/>
<path d="M2583 5988 c31 -77 51 -111 62 -107 13 5 7 49 -11 76 -8 12 -14 27
-14 33 0 15 -33 50 -47 50 -8 0 -5 -16 10 -52z"/>
<path d="M2504 5993 c15 -28 73 -154 116 -250 13 -29 30 -53 37 -53 15 0 17
23 3 48 -23 41 -90 194 -90 208 0 8 -4 14 -8 14 -4 0 -13 14 -19 30 -8 20 -18
30 -33 30 -20 0 -20 -1 -6 -27z"/>
<path d="M5876 5998 c-9 -12 -16 -30 -16 -40 0 -10 -4 -18 -10 -18 -5 0 -10
-4 -10 -10 0 -10 -36 -91 -76 -174 -14 -27 -22 -52 -18 -55 6 -6 64 58 64 72
0 4 23 55 50 112 28 57 50 111 50 119 0 23 -16 20 -34 -6z"/>
<path d="M2440 5978 c1 -7 9 -31 20 -53 11 -22 19 -44 20 -50 0 -16 48 -71 55
-63 8 8 -16 78 -27 78 -4 0 -8 5 -8 12 0 22 -35 87 -47 88 -7 0 -13 -6 -13
-12z"/>
<path d="M5940 5980 c0 -6 -16 -43 -35 -83 -41 -83 -39 -77 -21 -77 15 0 39
33 51 70 4 14 12 27 16 30 5 4 12 20 15 38 5 25 3 32 -10 32 -9 0 -16 -5 -16
-10z"/>
<path d="M2370 5956 c0 -18 86 -166 96 -166 8 0 14 3 14 7 0 15 -66 139 -80
150 -15 12 -30 17 -30 9z"/>
<path d="M5984 5903 c-16 -32 -32 -59 -36 -61 -11 -5 -10 -52 0 -52 5 0 17 17
28 38 10 20 22 39 27 40 4 2 7 12 7 22 0 10 4 20 9 22 4 2 12 13 15 26 5 16 3
22 -7 22 -8 0 -27 -26 -43 -57z"/>
<path d="M2329 5884 c12 -19 21 -42 21 -50 0 -8 4 -14 8 -14 4 0 13 -13 19
-30 12 -31 43 -42 43 -15 0 8 -4 15 -10 15 -5 0 -10 6 -10 14 0 33 -56 116
-78 116 -11 0 -9 -9 7 -36z"/>
<path d="M6057 5900 c-9 -11 -17 -22 -17 -25 0 -3 -11 -28 -25 -57 -14 -28
-23 -53 -20 -56 12 -12 33 12 65 74 19 38 40 72 45 76 6 4 1 8 -10 8 -11 0
-28 -9 -38 -20z"/>
<path d="M2250 5875 c0 -8 3 -15 8 -15 4 0 15 -19 24 -43 27 -65 88 -125 88
-87 0 6 -4 10 -10 10 -5 0 -10 6 -10 14 0 18 -29 73 -52 100 -10 11 -18 23
-18 28 0 4 -7 8 -15 8 -8 0 -15 -7 -15 -15z"/>
<path d="M6117 5858 c-13 -18 -32 -51 -43 -73 -10 -22 -23 -43 -28 -46 -4 -4
-2 -10 5 -14 8 -5 21 2 36 21 25 31 73 120 73 135 0 19 -20 8 -43 -23z"/>
<path d="M6181 5842 c-11 -17 -21 -35 -21 -40 0 -6 -3 -12 -7 -14 -7 -3 -34
-49 -82 -143 -9 -16 -19 -32 -22 -35 -3 -3 -25 -41 -49 -85 -23 -44 -47 -83
-53 -86 -5 -4 -6 -12 -3 -18 17 -27 75 40 131 154 11 22 22 42 25 45 3 3 10
14 16 25 6 11 26 47 44 80 58 103 62 113 52 131 -8 14 -12 12 -31 -14z"/>
<path d="M2194 5834 c4 -15 18 -43 32 -63 13 -19 24 -41 24 -48 0 -7 4 -13 9
-13 5 0 12 -11 15 -25 4 -14 11 -25 16 -25 6 0 10 -9 10 -20 0 -11 3 -20 8
-20 4 0 12 -9 17 -20 68 -134 107 -190 132 -190 7 0 13 2 13 4 0 3 -21 40 -48
83 -26 43 -54 92 -62 108 -8 17 -21 36 -27 43 -7 7 -13 20 -13 28 0 8 -4 14
-9 14 -5 0 -11 8 -14 18 -7 22 -49 93 -64 110 -7 7 -13 20 -13 28 0 8 -7 14
-16 14 -12 0 -15 -6 -10 -26z"/>
<path d="M4050 5811 c-25 -23 -30 -36 -30 -75 0 -46 16 -76 39 -76 6 0 11 -5
11 -11 0 -7 12 -10 29 -7 26 4 28 2 21 -21 -5 -23 -13 -26 -53 -29 -49 -3 -57
-13 -33 -38 23 -22 59 -17 96 15 35 29 35 29 38 124 4 92 3 97 -22 122 -33 33
-59 32 -96 -4z m88 -59 c4 -37 -28 -75 -54 -65 -18 7 -28 46 -20 79 6 21 11
25 39 22 28 -3 32 -7 35 -36z"/>
<path d="M2134 5815 c-4 -9 -3 -20 2 -24 5 -3 18 -22 28 -41 11 -19 28 -44 38
-54 10 -11 18 -23 18 -28 0 -4 7 -8 15 -8 21 0 19 8 -10 46 -14 18 -25 37 -25
43 0 6 -4 11 -9 11 -5 0 -13 10 -17 22 -3 12 -13 28 -20 36 -12 11 -15 11 -20
-3z"/>
<path d="M4264 5808 c-34 -41 -44 -67 -44 -118 0 -28 6 -60 13 -73 23 -41 61
-77 81 -77 24 1 56 22 56 38 0 6 5 12 12 14 7 3 11 34 11 94 0 80 -2 93 -23
117 -30 35 -78 37 -106 5z m70 -24 c12 -11 16 -36 16 -94 0 -58 -4 -83 -16
-94 -20 -20 -19 -20 -44 6 -16 17 -20 35 -20 88 0 53 4 71 20 88 25 26 24 26
44 6z"/>
<path d="M6246 5804 c-9 -8 -16 -22 -16 -30 0 -8 -4 -14 -10 -14 -5 0 -10 -5
-10 -11 0 -6 -9 -24 -21 -40 -11 -16 -18 -33 -14 -38 7 -12 35 -3 35 11 0 5
16 34 35 64 19 30 35 59 35 64 0 15 -17 12 -34 -6z"/>
<path d="M3638 5796 c-11 -8 -19 -28 -19 -52 -2 -30 -3 -33 -6 -12 -6 38 -38
60 -69 46 -29 -13 -31 -21 -26 -84 3 -42 8 -54 28 -64 30 -17 74 3 74 33 0 20
1 19 25 -3 22 -21 27 -22 50 -10 21 11 25 21 25 58 0 28 -7 54 -21 73 -22 32
-35 35 -61 15z m-68 -58 c0 -16 -3 -19 -11 -11 -6 6 -8 16 -5 22 11 17 16 13
16 -11z m106 5 c20 -26 18 -55 -3 -51 -12 2 -19 14 -21 36 -4 36 4 41 24 15z
m-86 -68 c0 -8 -9 -15 -20 -15 -11 0 -20 7 -20 15 0 8 9 15 20 15 11 0 20 -7
20 -15z"/>
<path d="M4667 5751 c5 -53 4 -61 -11 -61 -9 0 -16 -7 -16 -15 0 -8 9 -15 19
-15 11 0 23 -5 26 -10 5 -7 11 -8 19 -1 8 6 11 36 9 83 -2 70 -3 73 -27 76
-26 3 -26 3 -19 -57z"/>
<path d="M4758 5747 c-21 -50 -22 -66 -4 -89 20 -27 60 -23 76 7 l14 26 10
-33 c20 -61 82 -45 86 23 5 66 1 78 -26 85 -21 5 -31 1 -50 -22 l-23 -29 -1
31 c0 20 -6 34 -16 38 -35 13 -49 5 -66 -37z m52 -26 c0 -39 -11 -57 -29 -47
-11 7 8 86 20 86 5 0 9 -18 9 -39z m106 -13 c-3 -18 -5 -36 -5 -40 -1 -5 -8
-8 -17 -8 -11 0 -14 5 -10 16 3 9 6 27 6 40 0 15 6 24 15 24 11 0 14 -8 11
-32z"/>
<path d="M6310 5776 c0 -8 -3 -16 -8 -18 -11 -5 -72 -103 -72 -116 0 -19 19
-14 38 9 9 12 22 26 27 33 14 14 45 81 45 95 0 6 -7 11 -15 11 -8 0 -15 -6
-15 -14z"/>
<path d="M2075 5771 c-3 -5 2 -16 10 -24 8 -9 15 -20 15 -26 0 -6 4 -11 8 -11
5 0 17 -18 28 -40 25 -52 49 -63 40 -18 -3 18 -10 34 -15 38 -4 3 -20 24 -35
48 -26 42 -40 51 -51 33z"/>
<path d="M6368 5728 c-45 -44 -97 -138 -77 -138 11 0 69 54 69 64 0 4 11 24
25 46 14 22 25 42 25 45 0 12 -21 3 -42 -17z"/>
<path d="M2020 5728 c0 -12 56 -104 77 -125 12 -14 33 -17 33 -6 0 10 -63 107
-72 111 -5 2 -8 10 -8 18 0 8 -7 14 -15 14 -8 0 -15 -5 -15 -12z"/>
<path d="M1952 5703 c24 -49 32 -63 40 -63 4 0 8 -7 8 -15 0 -8 3 -15 8 -15 4
0 12 -10 17 -22 12 -27 45 -37 45 -14 0 9 -4 16 -8 16 -5 0 -18 17 -30 38 -27
49 -56 82 -72 82 -6 0 -10 -3 -8 -7z"/>
<path d="M6423 5695 c-7 -8 -13 -18 -13 -24 0 -5 -3 -11 -7 -13 -11 -4 -63
-86 -63 -98 0 -14 17 -13 30 3 25 29 90 129 90 137 0 15 -23 11 -37 -5z"/>
<path d="M1900 5665 c0 -17 33 -75 43 -75 4 0 7 -6 7 -14 0 -8 3 -16 8 -18 4
-1 23 -28 42 -58 19 -30 42 -62 52 -71 10 -9 18 -21 18 -28 0 -6 7 -11 15 -11
8 0 15 4 15 9 0 9 -75 125 -96 147 -5 6 -25 37 -44 67 -34 56 -60 79 -60 52z"/>
<path d="M5253 5673 c-16 -6 -17 -30 -2 -35 16 -5 2 -44 -23 -68 -17 -16 -19
-22 -8 -35 13 -15 70 -21 70 -7 0 4 -6 14 -12 20 -10 10 -10 17 0 32 6 11 12
31 12 44 0 14 5 28 10 31 26 16 -15 32 -47 18z"/>
<path d="M6483 5656 c-13 -14 -23 -31 -23 -36 0 -6 -3 -10 -8 -10 -4 0 -16
-16 -26 -35 -11 -19 -22 -35 -25 -35 -4 0 -15 -16 -25 -35 -11 -19 -23 -35
-28 -35 -4 0 -8 -7 -8 -15 0 -8 -3 -15 -7 -15 -15 -1 -43 -49 -33 -55 9 -6 90
68 90 83 0 6 16 27 60 79 5 7 10 15 10 18 0 3 12 24 26 46 32 51 30 83 -3 45z"/>
<path d="M3057 5638 c-36 -46 5 -133 59 -126 27 3 29 6 28 49 0 36 -6 52 -27
72 -32 33 -37 33 -60 5z m46 -38 c18 -22 23 -60 7 -60 -10 0 -40 52 -40 70 0
16 14 12 33 -10z"/>
<path d="M1848 5629 c-5 -14 29 -81 44 -87 4 -2 8 -8 8 -14 0 -12 50 -58 63
-58 4 0 7 5 7 10 0 6 -4 10 -9 10 -5 0 -11 8 -15 18 -3 9 -11 26 -18 36 -48
74 -74 101 -80 85z"/>
<path d="M5351 5631 c-12 -8 -12 -12 -2 -25 11 -13 10 -21 0 -46 -8 -16 -20
-30 -26 -30 -7 0 -13 -9 -13 -20 0 -15 7 -20 25 -20 36 0 40 3 41 25 1 32 16
85 26 91 11 7 -10 34 -26 34 -6 0 -17 -4 -25 -9z"/>
<path d="M2978 5617 c-27 -7 -38 -16 -38 -29 0 -15 4 -17 19 -9 24 13 31 -2
31 -70 0 -37 4 -49 15 -49 12 0 15 16 15 85 0 47 -1 84 -2 84 -2 -1 -20 -6
-40 -12z"/>
<path d="M6534 5608 c-51 -60 -94 -127 -84 -133 9 -6 60 36 60 50 0 3 11 18
25 33 14 15 25 32 25 39 0 7 5 13 11 13 5 0 7 5 4 10 -9 15 -20 12 -41 -12z"/>
<path d="M5459 5593 c-21 -5 -49 -56 -49 -90 0 -40 33 -68 60 -51 11 7 20 18
20 25 0 6 4 13 9 15 4 2 11 19 15 40 5 26 2 40 -9 52 -17 16 -19 17 -46 9z
m31 -38 c0 -25 -23 -65 -37 -65 -17 0 -17 14 2 50 16 32 35 40 35 15z"/>
<path d="M1780 5577 c0 -7 9 -19 20 -27 11 -8 20 -19 20 -26 0 -6 11 -24 25
-40 14 -16 25 -32 25 -35 0 -10 31 -20 41 -13 8 5 -4 22 -78 112 -13 15 -23
30 -23 35 0 4 -7 7 -15 7 -8 0 -15 -6 -15 -13z"/>
<path d="M3720 5527 c0 -67 10 -87 45 -87 30 0 45 19 45 57 0 54 -25 93 -60
93 l-30 0 0 -63z m50 18 c0 -8 6 -24 12 -35 10 -15 10 -22 0 -32 -16 -16 -30
-1 -32 37 -3 40 -2 45 10 45 6 0 10 -7 10 -15z"/>
<path d="M4675 5570 c-10 -11 -15 -28 -12 -40 3 -11 -1 -27 -9 -35 -28 -28 21
-74 65 -60 14 4 20 19 24 62 3 31 1 65 -4 75 -13 24 -41 23 -64 -2z m45 -35
c0 -9 -6 -12 -15 -9 -8 4 -12 10 -9 15 8 14 24 10 24 -6z m0 -60 c0 -8 -7 -15
-15 -15 -8 0 -15 7 -15 15 0 8 7 15 15 15 8 0 15 -7 15 -15z"/>
<path d="M6589 5563 c-49 -53 -88 -115 -82 -130 5 -12 11 -10 29 11 13 14 24
28 24 31 0 3 11 18 25 33 14 15 25 32 25 39 0 7 4 13 9 13 5 0 11 7 15 15 9
25 -18 17 -45 -12z"/>
<path d="M3625 5564 c-21 -22 -16 -104 8 -128 23 -24 52 -19 65 9 16 35 14 64
-7 100 -21 36 -42 42 -66 19z m45 -70 c0 -45 -24 -42 -28 4 -2 24 1 32 12 32
12 0 16 -10 16 -36z"/>
<path d="M3523 5546 c-28 -13 -30 -32 -4 -39 24 -6 34 -62 14 -79 -12 -10 -12
-13 1 -20 21 -12 66 1 66 18 0 8 -7 14 -15 14 -11 0 -15 13 -15 54 0 58 -10
69 -47 52z"/>
<path d="M4783 5548 c-18 -23 -22 -107 -6 -123 25 -25 51 -17 72 22 15 30 14
82 -3 99 -18 17 -50 18 -63 2z m33 -94 c-8 -21 -26 -17 -26 5 0 11 5 32 12 48
l12 28 4 -33 c2 -19 1 -40 -2 -48z"/>
<path d="M1730 5527 c0 -7 9 -19 20 -27 11 -8 20 -20 20 -26 0 -17 69 -89 77
-80 7 7 -21 61 -45 85 -7 8 -20 24 -29 37 -16 26 -43 32 -43 11z"/>
<path d="M6639 5512 c-64 -73 -93 -123 -71 -122 13 1 42 27 42 39 0 6 3 11 8
11 4 0 16 16 26 35 11 19 23 35 28 35 4 0 8 7 8 15 0 22 -14 18 -41 -13z"/>
<path d="M1681 5496 c-11 -13 14 -48 89 -125 22 -24 25 -24 28 -7 2 10 0 21
-5 25 -5 3 -30 32 -55 63 -36 44 -49 54 -57 44z"/>
<path d="M6710 5493 c0 -4 -15 -24 -33 -43 -41 -43 -72 -89 -64 -96 8 -8 47
19 47 32 0 7 7 14 15 18 8 3 15 11 15 18 0 8 9 20 20 28 22 16 26 35 10 45 -5
3 -10 3 -10 -2z"/>
<path d="M3193 5459 c-29 -11 -31 -63 -5 -108 44 -78 114 -30 81 56 -17 45
-46 64 -76 52z m47 -70 c0 -16 -3 -29 -7 -29 -11 0 -34 51 -27 61 10 17 34 -5
34 -32z"/>
<path d="M1620 5440 c0 -10 6 -23 13 -27 8 -4 22 -21 33 -38 10 -16 39 -50 63
-75 24 -25 63 -70 85 -100 50 -68 116 -140 128 -140 16 0 7 32 -19 68 -41 54
-45 60 -78 97 -37 42 -51 59 -95 115 -49 62 -106 120 -119 120 -6 0 -11 -9
-11 -20z"/>
<path d="M5227 5454 c-12 -13 -8 -34 8 -34 24 0 17 -22 -20 -64 -41 -45 -41
-46 -15 -46 22 0 76 51 85 81 4 11 11 19 16 19 5 0 9 7 9 15 0 10 -10 15 -34
15 -19 0 -36 5 -38 11 -2 5 -7 7 -11 3z"/>
<path d="M6738 5430 c-14 -16 -39 -46 -55 -67 -15 -21 -39 -50 -53 -65 -14
-14 -45 -52 -70 -83 -25 -31 -57 -71 -72 -88 -27 -31 -37 -67 -19 -67 19 0 41
13 41 24 0 6 23 35 50 65 28 30 50 57 50 62 0 4 11 19 25 33 14 14 25 27 25
30 0 2 25 30 56 63 58 60 88 106 77 117 -12 12 -28 5 -55 -24z"/>
<path d="M4188 3993 l-3 -1448 -40 -18 c-58 -27 -105 -75 -105 -108 0 -15 -7
-29 -16 -33 -9 -3 -620 -6 -1359 -6 -1180 0 -1344 -2 -1355 -15 -11 -13 142
-15 1356 -17 l1368 -3 8 -32 c5 -18 13 -33 18 -33 6 0 10 -5 10 -11 0 -25 97
-89 135 -89 24 0 94 38 123 67 8 7 24 33 36 56 l23 42 1363 3 c1208 2 1361 4
1350 17 -11 13 -175 15 -1357 15 -1443 0 -1373 -2 -1373 48 0 25 -52 76 -94
93 -17 7 -37 19 -43 25 -10 10 -13 314 -13 1453 0 1273 -2 1441 -15 1441 -13
0 -15 -170 -17 -1447z m2 -1553 l0 -60 -60 0 c-57 0 -60 1 -60 25 0 14 5 25
10 25 6 0 10 6 10 14 0 20 50 55 78 56 20 0 22 -4 22 -60z m113 26 c19 -19 37
-46 39 -60 5 -26 5 -26 -58 -26 l-64 0 0 60 c0 57 1 60 25 60 14 0 38 -14 58
-34z m47 -128 c0 -19 -32 -64 -62 -87 -20 -16 -41 -21 -85 -21 -56 0 -62 2
-94 38 -37 39 -52 66 -42 76 4 3 69 6 145 6 104 0 138 -3 138 -12z"/>
<path d="M5790 5427 c0 -7 5 -18 11 -24 8 -8 8 -13 0 -17 -6 -4 -11 -16 -11
-27 0 -14 -7 -19 -25 -19 -28 0 -30 -7 -12 -32 22 -29 68 -28 60 2 -3 11 2 31
11 45 9 13 16 31 16 40 0 8 5 15 10 15 6 0 10 7 10 15 0 10 -11 15 -35 15 -22
0 -35 -5 -35 -13z"/>
<path d="M3077 5413 c-14 -13 -6 -41 13 -46 26 -7 36 -35 22 -57 -14 -24 12
-50 30 -32 7 7 20 12 30 12 10 0 18 7 18 15 0 8 -8 15 -19 15 -14 0 -21 10
-25 35 -4 19 -11 35 -16 35 -6 0 -10 7 -10 15 0 15 -31 21 -43 8z"/>
<path d="M1576 5388 c10 -33 116 -136 122 -119 2 7 0 16 -4 20 -5 3 -22 23
-37 44 -53 71 -95 99 -81 55z"/>
<path d="M2512 5398 c-18 -18 -14 -52 11 -89 24 -36 59 -48 83 -29 16 14 19
60 4 60 -5 0 -10 6 -10 13 0 22 -35 57 -57 57 -10 0 -24 -5 -31 -12z m65 -58
c11 -30 5 -45 -12 -32 -17 12 -36 52 -30 62 10 16 30 1 42 -30z"/>
<path d="M5322 5398 c-7 -7 -12 -18 -12 -25 0 -7 -4 -13 -10 -13 -5 0 -10 -20
-10 -45 0 -44 1 -45 33 -45 38 1 65 32 69 78 4 50 -39 81 -70 50z m38 -42 c0
-7 -7 -26 -15 -42 -12 -24 -15 -25 -21 -10 -8 20 10 66 26 66 5 0 10 -6 10
-14z"/>
<path d="M6792 5373 c-72 -75 -97 -113 -74 -113 4 0 30 24 57 53 73 77 78 84
65 92 -6 4 -27 -11 -48 -32z"/>
<path d="M2983 5375 c-17 -18 -17 -35 0 -35 21 0 39 -39 32 -71 -6 -26 -4 -29
17 -29 26 1 58 22 58 39 0 6 -9 11 -19 11 -14 0 -24 14 -37 50 -19 52 -30 59
-51 35z"/>
<path d="M5897 5375 c-23 -16 -22 -37 1 -33 32 5 25 -17 -7 -23 -64 -13 -79
-49 -31 -71 17 -7 30 -16 30 -20 0 -5 5 -8 10 -8 6 0 10 9 10 20 0 11 -7 20
-15 20 -8 0 -15 7 -15 15 0 9 9 15 23 15 38 1 62 28 58 66 -2 20 -45 33 -64
19z"/>
<path d="M1510 5360 c0 -20 110 -140 128 -140 7 0 12 2 12 5 0 13 -38 63 -78
103 -43 41 -62 51 -62 32z"/>
<path d="M2437 5352 c-42 -47 1 -152 57 -138 49 12 28 96 -23 96 -24 0 -28 18
-7 26 8 3 12 12 9 20 -7 19 -17 18 -36 -4z m63 -98 c0 -8 -7 -14 -15 -14 -8 0
-15 9 -15 20 0 13 5 18 15 14 8 -4 15 -12 15 -20z"/>
<path d="M6836 5325 c-25 -26 -48 -56 -51 -66 -4 -11 -11 -19 -16 -19 -5 0 -9
-4 -9 -10 0 -21 26 -8 63 30 20 22 37 44 37 50 0 5 4 10 9 10 11 0 25 39 18
47 -3 2 -26 -17 -51 -42z"/>
<path d="M5982 5314 c-12 -8 -22 -22 -22 -30 0 -8 -4 -14 -9 -14 -5 0 -11 -14
-13 -31 -5 -34 16 -64 39 -55 8 3 18 6 23 6 9 0 50 80 50 97 0 13 -27 43 -38
43 -4 0 -18 -7 -30 -16z m32 -46 c-9 -29 -31 -51 -44 -43 -7 4 -4 17 7 36 21
35 48 40 37 7z"/>
<path d="M1467 5304 c-3 -3 4 -16 16 -28 12 -12 38 -41 58 -64 32 -37 59 -53
59 -37 0 21 -100 135 -118 135 -5 0 -11 -3 -15 -6z"/>
<path d="M6894 5282 c-32 -30 -84 -95 -84 -105 0 -18 26 -3 59 35 20 23 46 52
58 64 12 12 19 25 16 28 -10 10 -16 7 -49 -22z"/>
<path d="M1417 5257 c-5 -14 12 -34 93 -109 33 -31 35 -32 38 -12 3 21 -53 87
-101 119 -21 13 -25 14 -30 2z"/>
<path d="M6921 5212 c-33 -32 -61 -67 -61 -76 0 -24 12 -20 55 22 69 66 85 86
76 100 -6 10 -25 -2 -70 -46z"/>
<path d="M2667 5232 c-19 -21 -22 -42 -7 -42 6 0 10 -8 10 -19 0 -10 11 -30
24 -44 35 -38 70 -25 74 27 2 21 -1 36 -7 36 -6 0 -11 6 -11 14 0 16 -37 46
-56 46 -6 0 -18 -8 -27 -18z m61 -47 c16 -34 15 -45 -2 -45 -17 0 -21 5 -30
43 -8 36 16 37 32 2z"/>
<path d="M1360 5211 c0 -9 227 -241 235 -241 20 0 -16 44 -163 198 -46 49 -72
64 -72 43z"/>
<path d="M6915 5106 c-63 -63 -115 -120 -115 -127 0 -7 12 -2 27 12 14 13 34
31 43 39 58 52 178 169 184 178 4 7 1 12 -8 12 -8 0 -67 -51 -131 -114z"/>
<path d="M5717 5185 c-13 -14 -27 -37 -29 -50 -10 -50 44 -85 78 -51 16 17 19
62 4 71 -5 3 -10 14 -9 23 0 11 3 12 6 5 5 -14 35 -18 46 -6 4 3 2 12 -4 20
-18 21 -64 15 -92 -12z m23 -65 c0 -13 -5 -18 -14 -14 -8 3 -12 12 -9 20 8 21
23 17 23 -6z"/>
<path d="M2564 5165 c-3 -14 -4 -32 0 -40 7 -20 36 -8 36 16 0 10 5 19 10 19
14 0 13 -37 -1 -46 -6 -3 -9 -22 -7 -40 3 -27 0 -34 -14 -34 -18 0 -68 64 -68
87 0 16 -22 17 -38 1 -15 -15 -16 -38 -1 -38 19 0 40 -29 46 -65 7 -43 33 -47
67 -10 13 14 30 25 38 25 9 0 28 10 42 21 21 16 24 24 15 30 -7 4 -22 3 -32
-3 -18 -9 -19 -7 -13 26 11 57 1 76 -39 76 -29 0 -36 -4 -41 -25z"/>
<path d="M1320 5154 c0 -19 119 -136 132 -128 13 8 -16 50 -71 101 -49 46 -61
52 -61 27z"/>
<path d="M5828 5155 c-7 -9 -18 -21 -24 -28 -15 -18 -26 -66 -19 -88 9 -27 40
-24 75 8 37 32 43 95 11 113 -25 13 -28 13 -43 -5z m32 -50 c0 -8 -4 -15 -10
-15 -5 0 -10 -6 -10 -14 0 -8 -7 -16 -15 -20 -18 -7 -20 17 -3 44 15 24 38 26
38 5z"/>
<path d="M7067 5155 c-9 -8 -19 -15 -24 -15 -4 0 -19 -14 -33 -32 -14 -17 -31
-37 -37 -44 -13 -13 -18 -44 -8 -44 4 0 22 16 42 35 20 19 40 35 45 35 4 0 8
7 8 15 0 8 4 15 9 15 11 0 26 39 18 46 -2 3 -12 -2 -20 -11z"/>
<path d="M1270 5100 c12 -22 79 -90 90 -90 3 0 16 -9 28 -20 13 -12 23 -16 27
-10 8 13 -119 140 -140 140 -13 0 -14 -4 -5 -20z"/>
<path d="M7061 5061 c-33 -33 -61 -68 -60 -78 0 -10 3 -13 6 -5 2 6 10 12 16
12 16 0 101 79 116 108 22 42 -13 25 -78 -37z"/>
<path d="M6308 5104 c-4 -3 -4 -12 -2 -19 6 -16 -34 -65 -53 -65 -16 0 -17
-22 -1 -38 18 -18 38 -14 38 8 0 11 5 20 10 20 6 0 10 5 10 11 0 7 11 22 25
35 25 23 33 44 16 44 -5 0 -16 2 -23 5 -8 3 -17 3 -20 -1z"/>
<path d="M2019 5059 c-23 -20 -23 -20 -4 -52 27 -46 56 -68 84 -65 44 5 49 32
15 79 -39 54 -65 64 -95 38z m62 -41 c19 -23 25 -48 12 -48 -16 1 -40 26 -47
48 -10 29 10 29 35 0z"/>
<path d="M1220 5056 c0 -8 18 -30 41 -48 22 -18 52 -43 66 -55 37 -33 50 -16
16 21 -15 17 -32 32 -36 34 -5 3 -22 17 -38 33 -33 32 -49 37 -49 15z"/>
<path d="M7111 5011 c-70 -68 -87 -113 -23 -65 53 41 102 93 102 110 0 25 -16
15 -79 -45z"/>
<path d="M6375 5030 c3 -5 13 -10 21 -10 8 0 14 -7 14 -15 0 -8 -9 -15 -21
-15 -16 0 -19 -4 -14 -20 3 -11 4 -24 0 -29 -8 -14 -35 -2 -35 15 0 8 -7 14
-15 14 -27 0 -17 -44 13 -62 26 -16 31 -16 50 -2 12 8 22 23 22 33 0 11 7 21
15 25 8 3 15 14 15 25 0 37 -12 51 -42 51 -17 0 -27 -4 -23 -10z"/>
<path d="M7150 4954 c-54 -52 -61 -64 -43 -64 25 0 123 91 123 114 0 25 -11
18 -80 -50z"/>
<path d="M1180 5001 c0 -18 105 -111 125 -111 15 0 10 9 -27 43 -87 79 -98 87
-98 68z"/>
<path d="M1950 5000 c0 -5 -7 -10 -15 -10 -20 0 -19 -25 2 -61 18 -30 38 -38
45 -18 2 6 13 9 23 6 19 -5 18 -5 -3 -12 -32 -10 -25 -41 8 -36 43 6 54 47 21
82 -14 15 -25 18 -46 13 -25 -6 -26 -5 -16 14 15 27 14 32 -4 32 -8 0 -15 -4
-15 -10z"/>
<path d="M1130 4957 c0 -7 21 -33 48 -59 111 -109 132 -128 140 -128 7 0 27
-17 126 -106 69 -62 124 -58 58 4 -49 46 -114 102 -119 102 -2 0 -10 6 -17 13
-7 6 -32 28 -56 47 -24 19 -60 51 -80 71 -62 61 -100 82 -100 56z"/>
<path d="M6439 4942 c-47 -49 -47 -102 0 -102 33 0 91 53 91 84 0 51 -50 61
-91 18z m35 -53 c-17 -18 -44 -26 -44 -12 0 4 12 20 28 36 22 23 28 25 30 12
2 -9 -4 -25 -14 -36z"/>
<path d="M7240 4949 c-14 -12 -52 -44 -84 -73 -32 -28 -68 -59 -80 -68 -12
-10 -26 -22 -33 -28 -7 -5 -14 -10 -17 -10 -3 0 -23 -17 -45 -37 -22 -21 -51
-46 -65 -56 -28 -19 -35 -57 -11 -57 14 0 34 15 95 70 49 44 84 74 123 103 73
55 157 139 157 158 0 24 -9 24 -40 -2z"/>
<path d="M2192 4920 c-9 -15 -9 -25 0 -45 6 -14 15 -25 20 -25 4 0 8 -7 8 -15
0 -8 7 -15 15 -15 8 0 15 -4 15 -10 0 -15 39 -12 56 4 17 18 18 42 2 62 -53
66 -93 81 -116 44z m72 -42 c29 -41 12 -54 -24 -18 -11 11 -20 25 -20 30 0 18
29 10 44 -12z"/>
<path d="M6185 4882 c-27 -31 -28 -35 -12 -47 18 -13 23 -35 7 -35 -5 0 -13 8
-19 18 -13 23 -32 4 -25 -26 5 -16 14 -22 36 -22 49 0 73 36 50 78 -11 18 -10
22 2 22 8 0 16 -5 18 -12 3 -7 12 -9 22 -5 18 7 18 8 0 28 -34 38 -47 38 -79
1z"/>
<path d="M1115 4860 c22 -21 43 -39 47 -40 4 0 19 -11 34 -25 21 -19 30 -22
41 -14 11 10 10 14 -9 27 -13 9 -25 18 -28 21 -28 32 -85 71 -103 71 -20 0
-18 -4 18 -40z"/>
<path d="M7259 4868 c-50 -37 -78 -67 -79 -85 0 -23 18 -13 71 37 29 28 58 50
66 50 7 0 13 7 13 15 0 23 -22 18 -71 -17z"/>
<path d="M2113 4855 c-18 -20 -16 -55 2 -55 9 0 20 10 25 23 8 21 9 21 9 -5 1
-23 6 -28 26 -28 33 0 32 -18 -1 -30 -23 -9 -24 -12 -10 -25 8 -8 19 -15 24
-15 11 0 52 43 52 56 0 5 -17 28 -39 52 -40 43 -67 52 -88 27z"/>
<path d="M7330 4837 c-14 -12 -43 -35 -63 -51 -40 -32 -51 -61 -18 -48 26 10
100 72 112 93 14 27 -3 30 -31 6z"/>
<path d="M1049 4833 c12 -22 58 -63 71 -63 6 0 10 -4 10 -8 0 -5 11 -14 25
-20 30 -14 43 2 18 22 -10 8 -38 31 -61 50 -48 39 -79 48 -63 19z"/>
<path d="M6265 4816 c-11 -12 -28 -36 -37 -53 -17 -29 -17 -31 1 -47 33 -30
69 -13 112 54 16 24 15 27 -1 48 -23 28 -49 27 -75 -2z m22 -62 c-16 -17 -27
-22 -31 -15 -4 6 5 23 20 38 35 35 45 14 11 -23z"/>
<path d="M1000 4787 c0 -16 31 -47 47 -47 6 0 13 -4 15 -8 4 -10 73 -62 81
-62 4 0 7 6 7 13 0 14 -44 57 -59 57 -5 0 -11 4 -13 8 -1 4 -20 18 -40 31 -29
17 -38 19 -38 8z"/>
<path d="M2030 4781 c-14 -28 -13 -44 4 -38 17 7 66 -36 66 -57 0 -8 -6 -16
-12 -19 -9 -3 -8 -7 4 -12 11 -4 25 1 39 14 13 12 26 21 31 21 4 0 8 7 8 15 0
8 -9 15 -20 15 -11 0 -38 18 -60 40 -22 22 -42 40 -45 40 -2 0 -9 -9 -15 -19z"/>
<path d="M7345 4759 c-22 -16 -50 -38 -62 -47 -24 -17 -31 -42 -13 -42 6 0 16
5 23 10 49 42 65 54 88 66 15 7 29 20 32 29 10 25 -24 17 -68 -16z"/>
<path d="M955 4730 c-3 -5 14 -23 37 -39 24 -17 48 -35 55 -41 7 -5 17 -10 23
-10 5 0 10 -4 10 -10 0 -5 7 -10 15 -10 8 0 15 4 15 8 0 12 -57 62 -70 62 -5
0 -10 4 -10 10 0 5 -11 12 -25 16 -14 3 -25 10 -25 15 0 12 -17 11 -25 -1z"/>
<path d="M7379 4703 c-24 -21 -52 -47 -62 -58 -16 -17 -17 -20 -3 -23 14 -3
24 2 61 36 7 6 16 12 19 12 10 0 66 53 66 62 0 19 -40 5 -81 -29z"/>
<path d="M6740 4677 c0 -27 -32 -57 -60 -57 -22 0 -26 -20 -8 -38 15 -15 38
-16 38 -1 0 11 25 39 35 39 10 0 44 43 45 56 0 11 -22 24 -41 24 -5 0 -9 -10
-9 -23z"/>
<path d="M917 4684 c-4 -4 -7 -11 -7 -15 0 -9 97 -79 110 -79 6 0 10 -4 10 -8
0 -5 16 -17 35 -28 19 -10 35 -22 35 -26 0 -5 7 -8 15 -8 8 0 15 -4 15 -8 0
-8 14 -16 63 -40 4 -2 7 2 7 8 0 14 -25 40 -38 40 -6 0 -12 4 -14 9 -5 13
-189 141 -203 141 -8 0 -15 5 -17 11 -2 5 -7 7 -11 3z"/>
<path d="M7480 4683 c0 -6 -8 -14 -17 -17 -33 -13 -63 -31 -63 -38 0 -5 -6 -8
-12 -8 -7 0 -28 -14 -47 -30 -18 -17 -36 -30 -40 -30 -3 0 -22 -14 -41 -30
-19 -16 -38 -30 -42 -30 -5 0 -8 -7 -8 -16 0 -9 3 -14 8 -12 48 24 62 32 62
40 0 4 7 8 15 8 8 0 15 3 15 8 0 4 27 23 60 42 33 19 60 38 60 43 0 4 5 7 10
7 6 0 23 11 38 25 21 19 24 27 14 37 -8 8 -12 8 -12 1z"/>
<path d="M1593 4645 c-23 -25 -14 -53 29 -89 23 -20 45 -36 48 -36 4 0 17 8
28 19 23 19 30 51 12 51 -5 0 -10 7 -10 15 0 8 -7 15 -15 15 -8 0 -15 4 -15 8
0 9 -44 32 -58 32 -4 -1 -13 -7 -19 -15z m67 -42 c11 -10 20 -21 20 -25 0 -17
-38 -6 -60 17 l-23 25 21 0 c12 0 31 -8 42 -17z"/>
<path d="M880 4615 c0 -8 51 -55 59 -55 3 0 19 -11 35 -25 30 -26 51 -31 60
-16 4 5 -11 20 -31 32 -21 13 -40 26 -43 29 -20 25 -80 51 -80 35z"/>
<path d="M7490 4605 c-7 -8 -19 -15 -26 -15 -8 0 -14 -3 -14 -8 0 -4 -16 -16
-35 -26 -35 -19 -47 -46 -21 -46 8 0 21 7 30 15 8 8 18 15 23 15 9 0 83 66 83
74 0 12 -28 5 -40 -9z"/>
<path d="M6815 4593 c-63 -14 -97 -43 -62 -56 9 -3 9 -9 -1 -27 -13 -22 -13
-23 15 -17 33 7 117 83 108 97 -6 10 -24 11 -60 3z"/>
<path d="M1534 4572 c-17 -11 -5 -65 21 -98 19 -23 26 -27 36 -16 7 6 23 12
36 12 27 0 27 0 10 34 -8 14 -17 23 -21 19 -4 -4 -10 -3 -14 2 -19 26 -59 53
-68 47z"/>
<path d="M850 4557 c0 -16 26 -47 39 -47 4 0 16 -8 27 -17 25 -23 61 -43 74
-43 25 0 5 28 -40 58 -27 17 -53 32 -57 32 -3 0 -15 7 -25 17 -16 14 -18 14
-18 0z"/>
<path d="M7525 4552 c-16 -9 -31 -20 -33 -24 -2 -5 -9 -8 -16 -8 -16 0 -71
-58 -63 -66 7 -7 67 18 67 28 0 5 5 8 11 8 15 0 89 59 89 71 0 14 -22 10 -55
-9z"/>
<path d="M1793 4544 c-20 -9 -15 -48 7 -64 11 -8 20 -20 20 -27 0 -18 -25 -16
-44 2 -16 16 -56 21 -56 6 0 -16 40 -100 51 -107 6 -3 16 -1 22 5 6 6 21 11
34 11 23 0 32 23 13 35 -19 12 2 27 27 20 30 -7 66 27 55 53 -17 47 -90 83
-129 66z m69 -43 c30 -29 18 -47 -15 -21 -28 22 -35 40 -17 40 6 0 20 -9 32
-19z"/>
<path d="M6875 4527 c-71 -41 -92 -73 -69 -105 8 -12 23 -22 33 -22 24 0 101
68 101 89 0 13 -34 54 -43 50 -1 -1 -11 -6 -22 -12z m10 -56 c-6 -19 -41 -38
-51 -28 -3 3 7 17 21 32 30 29 40 28 30 -4z"/>
<path d="M805 4488 c9 -23 152 -101 160 -88 7 11 -18 40 -34 40 -5 0 -16 6
-23 13 -39 36 -113 61 -103 35z"/>
<path d="M6620 4490 c-19 -5 -48 -12 -64 -17 -28 -9 -28 -9 -10 -28 13 -13 15
-20 6 -23 -28 -9 -12 -32 23 -32 23 0 35 5 35 14 0 7 16 27 36 44 20 17 33 36
29 41 -3 6 -9 10 -13 10 -4 -1 -23 -5 -42 -9z"/>
<path d="M7525 4469 c-84 -43 -90 -49 -71 -67 14 -14 17 -14 34 1 10 9 24 17
30 17 7 0 12 4 12 10 0 5 11 12 25 16 14 3 25 10 25 15 0 5 7 9 15 9 8 0 15 7
15 15 0 22 -19 19 -85 -16z"/>
<path d="M770 4436 c0 -9 12 -23 28 -33 15 -10 29 -20 32 -23 6 -7 75 -40 84
-40 3 0 6 7 6 15 0 8 -5 15 -11 15 -6 0 -23 8 -37 18 -74 51 -102 64 -102 48z"/>
<path d="M7600 4432 c-19 -9 -44 -24 -55 -34 -11 -9 -31 -25 -45 -36 -14 -11
-23 -23 -19 -26 5 -5 89 32 99 44 3 4 20 15 38 25 17 11 32 25 32 32 0 17 -8
16 -50 -5z"/>
<path d="M6652 4413 c-44 -21 -67 -65 -50 -93 13 -20 58 -28 58 -10 0 6 6 10
13 10 16 0 51 37 60 62 6 18 -16 48 -36 48 -7 0 -27 -8 -45 -17z m33 -42 c-6
-19 -41 -38 -51 -28 -3 3 7 17 21 32 30 29 40 28 30 -4z"/>
<path d="M730 4371 c0 -12 9 -23 23 -27 12 -4 24 -9 27 -13 7 -9 40 -28 80
-49 19 -9 37 -20 40 -23 3 -4 15 -9 28 -13 12 -4 22 -12 22 -17 0 -5 7 -9 15
-9 8 0 15 -3 15 -7 0 -5 20 -17 45 -28 25 -11 45 -23 45 -27 0 -5 6 -8 14 -8
7 0 19 -7 26 -15 14 -17 60 -20 60 -4 0 18 -14 28 -115 83 -10 6 -25 16 -32
23 -7 6 -26 17 -43 25 -16 7 -30 16 -30 20 0 5 -6 8 -14 8 -8 0 -21 6 -28 13
-7 7 -30 22 -52 32 -21 11 -52 28 -70 37 -41 22 -56 22 -56 -1z"/>
<path d="M1650 4378 c0 -7 -3 -24 -7 -37 -5 -20 -4 -22 13 -13 15 8 25 5 47
-13 15 -13 27 -30 27 -38 0 -34 21 -25 60 27 14 18 13 19 -13 14 -23 -4 -35 2
-67 33 -40 40 -60 49 -60 27z"/>
<path d="M7620 4371 c-14 -10 -52 -33 -85 -51 -33 -18 -69 -38 -80 -44 -10 -6
-25 -17 -33 -23 -7 -7 -20 -13 -28 -13 -8 0 -14 -4 -14 -10 0 -5 -5 -10 -12
-10 -6 0 -25 -10 -42 -23 -17 -12 -43 -29 -58 -36 -16 -8 -28 -20 -28 -28 0
-18 45 -17 60 2 7 8 19 15 26 15 8 0 14 3 14 8 0 4 19 16 43 27 23 11 44 22
47 25 3 3 14 10 25 16 84 46 122 68 135 78 8 6 31 20 50 30 38 21 51 36 44 48
-9 13 -38 8 -64 -11z"/>
<path d="M700 4316 c1 -19 124 -96 155 -96 28 0 -6 38 -57 62 -26 13 -48 26
-48 29 0 4 -11 9 -25 11 -15 3 -25 1 -25 -6z"/>
<path d="M7618 4283 c-38 -20 -68 -43 -68 -50 0 -19 16 -16 60 12 22 14 44 25
50 25 12 0 50 32 50 42 0 15 -25 7 -92 -29z"/>
<path d="M665 4261 c-10 -17 2 -28 68 -59 87 -41 97 -44 97 -27 0 9 -17 23
-37 33 -21 9 -40 19 -43 22 -3 3 -18 12 -35 20 -16 8 -33 16 -37 18 -3 2 -9
-2 -13 -7z"/>
<path d="M7700 4252 c-19 -9 -37 -19 -40 -22 -3 -3 -22 -14 -42 -25 -23 -12
-38 -27 -38 -38 0 -16 12 -12 82 25 47 25 84 51 86 61 4 21 -3 21 -48 -1z"/>
<path d="M7104 4198 c1 -17 -5 -24 -21 -26 -13 -2 -23 -8 -23 -14 0 -6 -10 -8
-25 -4 -19 5 -25 2 -25 -9 0 -15 37 -63 42 -54 2 2 8 13 13 23 6 10 30 28 53
40 46 23 50 32 25 52 -26 20 -40 17 -39 -8z"/>
<path d="M632 4189 c6 -18 155 -95 165 -85 10 10 -56 66 -78 66 -10 0 -19 4
-21 10 -1 5 -18 13 -37 16 -26 6 -33 4 -29 -7z"/>
<path d="M7699 4172 c-52 -25 -89 -53 -89 -66 0 -9 38 -7 42 2 2 4 31 21 65
37 35 17 63 36 63 43 0 18 -19 15 -81 -16z"/>
<path d="M1236 4151 c-27 -29 -2 -61 72 -90 29 -12 35 -12 52 4 27 24 26 30
-16 70 -41 40 -81 46 -108 16z m64 -21 c0 -5 7 -10 15 -10 8 0 15 -7 15 -15 0
-8 -6 -15 -13 -15 -18 0 -58 35 -50 44 10 10 33 7 33 -4z"/>
<path d="M600 4137 c0 -17 11 -27 70 -59 58 -32 100 -43 100 -26 0 10 -63 47
-162 96 -5 2 -8 -3 -8 -11z"/>
<path d="M7770 4131 c-19 -9 -37 -18 -40 -21 -3 -3 -24 -14 -47 -24 -43 -19
-52 -30 -33 -41 12 -7 134 51 151 72 20 23 4 31 -31 14z"/>
<path d="M7148 4122 c-25 -10 -38 -21 -38 -33 0 -11 5 -19 10 -19 6 0 10 -7
10 -15 0 -22 -27 -18 -33 5 -5 21 -37 18 -37 -4 0 -21 31 -56 49 -56 30 0 62
38 55 65 -8 31 3 32 27 3 13 -15 19 -17 20 -7 2 24 -2 43 -14 59 -11 15 -16
15 -49 2z"/>
<path d="M1450 4070 c0 -57 89 -102 130 -65 15 14 17 21 8 41 -6 13 -15 24
-20 24 -5 0 -16 7 -24 15 -9 8 -33 15 -55 15 -37 0 -39 -2 -39 -30z m70 -10
c0 -5 7 -10 15 -10 8 0 15 -7 15 -15 0 -20 -20 -18 -47 4 -28 24 -29 31 -3 31
11 0 20 -4 20 -10z"/>
<path d="M570 4063 c0 -5 30 -21 66 -38 36 -16 104 -49 152 -72 52 -25 89 -38
91 -31 4 13 -38 47 -59 48 -8 0 -24 7 -34 15 -11 8 -28 15 -38 15 -10 0 -18 4
-18 8 0 4 -22 16 -50 27 -27 11 -50 23 -50 27 0 4 -13 8 -30 8 -16 0 -30 -3
-30 -7z"/>
<path d="M1174 4046 c-6 -26 1 -46 17 -46 5 0 9 9 9 20 0 11 7 20 15 20 8 0
15 -9 15 -20 0 -11 5 -20 10 -20 6 0 10 5 10 10 0 6 7 10 15 10 8 0 15 -7 15
-15 0 -9 -7 -18 -15 -21 -21 -8 -19 -34 3 -34 27 1 52 25 52 52 0 30 -17 48
-47 48 -13 0 -23 5 -23 10 0 6 -16 10 -35 10 -28 0 -36 -4 -41 -24z"/>
<path d="M6930 4060 c0 -6 7 -13 15 -16 24 -9 17 -24 -10 -24 -20 0 -25 -5
-25 -25 0 -16 -6 -25 -15 -25 -9 0 -15 9 -15 25 0 15 -6 25 -14 25 -19 0 -25
-20 -13 -47 16 -37 45 -38 91 -6 43 30 56 63 36 89 -14 16 -50 19 -50 4z"/>
<path d="M7780 4060 c-36 -21 -125 -60 -136 -60 -7 0 -19 -6 -26 -13 -7 -6
-30 -21 -50 -32 -36 -19 -49 -35 -28 -35 14 0 84 34 88 43 2 4 11 7 19 7 15 0
203 89 203 96 0 8 -55 3 -70 -6z"/>
<path d="M7180 4023 c-16 -7 -60 -54 -60 -65 0 -43 62 -52 110 -16 62 46 23
109 -50 81z m50 -34 c0 -16 -31 -38 -52 -39 -24 0 -23 9 4 31 24 21 48 25 48
8z"/>
<path d="M540 4007 c0 -18 21 -37 41 -37 10 0 19 -3 21 -7 4 -11 75 -43 93
-43 8 0 15 7 15 15 0 8 -7 15 -15 15 -8 0 -15 5 -15 10 0 6 -11 10 -25 10 -14
0 -25 4 -25 9 0 5 -13 12 -30 16 -16 4 -32 11 -35 16 -9 13 -25 11 -25 -4z"/>
<path d="M1396 3988 c-9 -17 -15 -32 -14 -33 2 0 15 -9 30 -18 15 -9 33 -17
39 -17 7 0 17 -7 23 -15 13 -18 52 -10 61 12 8 22 -4 53 -21 53 -8 0 -14 5
-14 10 0 6 -11 10 -25 10 -14 0 -25 -4 -25 -10 0 -5 -6 -10 -14 -10 -9 0 -12
8 -8 25 6 35 -13 31 -32 -7z m104 -53 c0 -8 -7 -15 -15 -15 -8 0 -15 7 -15 15
0 8 7 15 15 15 8 0 15 -7 15 -15z"/>
<path d="M7845 4011 c-3 -5 -19 -12 -35 -16 -17 -4 -30 -11 -30 -16 0 -5 -6
-9 -13 -9 -7 0 -25 -6 -40 -12 -29 -14 -37 -38 -12 -38 27 0 165 72 165 86 0
16 -26 19 -35 5z"/>
<path d="M6932 3933 c-38 -35 -39 -38 -25 -60 20 -30 53 -29 103 2 28 17 40
32 40 48 0 58 -60 63 -118 10z m78 -17 c0 -13 -28 -26 -57 -26 -18 0 -5 28 15
33 32 9 42 7 42 -7z"/>
<path d="M505 3939 c-9 -13 -14 -10 70 -43 39 -15 78 -32 88 -37 13 -7 17 -5
17 9 0 12 -15 24 -42 36 -24 9 -55 24 -70 32 -31 17 -54 18 -63 3z"/>
<path d="M7845 3936 c-16 -8 -49 -22 -72 -32 -43 -18 -61 -54 -28 -54 8 0 15
5 15 10 0 6 6 10 14 10 8 0 27 7 43 15 15 8 43 20 61 27 34 14 44 38 15 38
-10 0 -31 -7 -48 -14z"/>
<path d="M1344 3895 c-9 -19 -9 -27 2 -36 8 -7 17 -9 20 -6 12 12 64 -15 64
-34 0 -28 35 -24 48 6 16 34 15 45 -3 45 -8 0 -15 -4 -15 -10 0 -5 -13 -1 -30
8 -16 9 -30 20 -30 25 0 4 -7 7 -15 7 -8 0 -15 5 -15 10 0 18 -15 10 -26 -15z"/>
<path d="M480 3873 c0 -12 16 -24 48 -37 26 -10 61 -24 79 -32 35 -16 53 -18
53 -6 0 19 -49 48 -130 79 -46 17 -50 16 -50 -4z"/>
<path d="M7890 3878 c-75 -31 -129 -61 -134 -74 -8 -21 8 -17 81 16 35 17 71
30 79 30 8 0 14 9 14 20 0 22 -4 23 -40 8z"/>
<path d="M460 3806 c0 -7 15 -19 33 -26 42 -16 66 -25 100 -39 16 -6 32 -9 37
-6 13 8 1 35 -15 35 -7 0 -26 7 -41 15 -16 8 -37 15 -46 15 -9 0 -20 5 -23 10
-9 15 -45 12 -45 -4z"/>
<path d="M7910 3810 c0 -5 -9 -10 -20 -10 -21 0 -97 -37 -106 -52 -16 -25 6
-22 96 14 78 31 104 58 56 58 -14 0 -26 -4 -26 -10z"/>
<path d="M432 3738 c3 -7 13 -15 24 -17 10 -2 21 -6 24 -10 3 -4 28 -15 55
-25 28 -10 59 -21 70 -26 11 -5 43 -16 70 -25 28 -9 58 -21 67 -26 10 -5 26
-9 37 -9 11 0 21 -3 23 -8 2 -4 23 -15 47 -25 33 -12 48 -14 58 -6 17 15 9 25
-35 45 -20 8 -52 22 -70 30 -18 8 -42 14 -52 14 -11 0 -20 5 -20 10 0 6 -8 10
-17 10 -16 0 -81 21 -128 41 -99 42 -161 53 -153 27z"/>
<path d="M7880 3733 c-19 -9 -44 -19 -55 -23 -79 -31 -108 -40 -125 -40 -11 0
-20 -4 -20 -9 0 -5 -13 -11 -29 -14 -15 -3 -59 -20 -96 -37 -59 -27 -66 -33
-54 -45 13 -13 21 -12 61 3 26 10 50 21 54 25 4 4 16 7 26 7 10 0 18 5 18 10
0 6 9 10 20 10 17 0 58 13 125 40 11 4 43 16 70 25 28 10 54 22 60 26 5 5 17
9 27 9 10 0 18 7 18 15 0 20 -54 19 -100 -2z"/>
<path d="M414 3679 c-9 -15 3 -23 61 -43 28 -10 60 -23 73 -29 18 -8 26 -7 39
5 14 15 12 17 -28 29 -24 7 -48 16 -53 21 -6 4 -20 8 -32 8 -13 0 -26 5 -29
10 -8 13 -22 13 -31 -1z"/>
<path d="M7393 3683 c-7 -3 -13 -10 -13 -17 0 -18 -59 -37 -80 -26 -23 12 -31
3 -24 -29 10 -42 20 -45 57 -17 18 14 40 26 49 26 8 0 23 6 33 14 16 11 17 15
4 33 -8 11 -20 18 -26 16z"/>
<path d="M7943 3677 c-24 -6 -43 -14 -43 -19 0 -4 -9 -8 -19 -8 -33 0 -51 -11
-51 -31 0 -21 11 -24 38 -10 9 5 37 17 62 26 63 24 72 29 72 40 -1 13 -10 13
-59 2z"/>
<path d="M1002 3632 c-51 -8 -40 -69 17 -96 35 -16 44 -17 71 -6 34 14 41 49
14 71 -23 19 -75 35 -102 31z m47 -43 c17 -6 31 -17 31 -24 0 -10 -7 -10 -37
0 -21 7 -39 18 -41 24 -5 14 7 14 47 0z"/>
<path d="M380 3612 c0 -8 73 -42 90 -42 6 0 20 -5 33 -12 49 -25 56 -27 62
-19 8 13 -18 36 -57 50 -18 7 -41 17 -50 22 -21 11 -78 12 -78 1z"/>
<path d="M7950 3611 c-8 -4 -33 -17 -55 -27 -42 -20 -57 -33 -49 -45 4 -7 68
12 80 24 4 4 16 7 27 7 21 0 77 30 77 42 0 10 -60 9 -80 -1z"/>
<path d="M1218 3603 c-13 -3 -18 -14 -18 -39 0 -28 4 -35 25 -40 14 -3 25 -10
25 -15 0 -15 70 -10 86 6 40 40 -48 105 -118 88z m71 -49 c22 -20 6 -28 -29
-14 -36 15 -43 45 -7 35 12 -4 28 -13 36 -21z"/>
<path d="M7386 3572 c-16 -2 -40 -11 -53 -19 -48 -32 -12 -91 48 -78 25 6 29
11 29 41 0 40 15 45 24 9 4 -17 13 -25 27 -25 11 0 19 3 17 8 -33 66 -38 70
-92 64z m-6 -58 c0 -9 -7 -14 -17 -12 -25 5 -28 28 -4 28 12 0 21 -6 21 -16z"/>
<path d="M7180 3545 c0 -16 6 -25 15 -25 8 0 15 -4 15 -10 0 -5 -6 -10 -14
-10 -8 0 -18 5 -21 10 -6 10 -95 14 -95 5 0 -3 7 -21 14 -40 19 -44 40 -47 34
-5 -5 35 -6 35 32 15 30 -15 40 -35 19 -35 -11 0 -59 -46 -59 -56 0 -3 5 -14
10 -25 16 -28 75 -25 117 7 44 33 43 59 -2 75 -32 12 -48 29 -26 29 13 0 23
34 16 52 -4 9 -17 20 -31 26 -22 11 -24 9 -24 -13z m60 -132 c0 -9 -49 -33
-67 -33 -16 0 -16 7 0 25 12 15 67 21 67 8z"/>
<path d="M362 3539 c2 -6 24 -18 48 -25 59 -19 112 -36 128 -41 6 -3 12 0 12
7 0 18 -26 40 -48 40 -11 0 -39 7 -62 15 -50 18 -83 19 -78 4z"/>
<path d="M7945 3533 c-63 -19 -78 -26 -83 -41 -5 -15 31 -15 77 -1 80 26 105
37 109 48 5 15 -42 13 -103 -6z"/>
<path d="M943 3523 c-17 -6 -16 -41 1 -59 24 -23 37 -17 30 14 -7 24 -6 26 9
13 10 -7 17 -19 17 -26 0 -31 66 -60 74 -32 16 49 16 67 1 67 -9 0 -19 -10
-24 -21 -7 -20 -9 -19 -29 15 -21 35 -44 44 -79 29z"/>
<path d="M1166 3498 c-18 -26 -9 -47 34 -78 61 -43 136 -3 91 49 -19 21 -71
29 -71 11 0 -5 -6 -10 -14 -10 -9 0 -12 8 -8 25 5 31 -12 33 -32 3z m104 -60
c0 -6 -7 -7 -16 -4 -9 3 -18 6 -20 6 -3 0 -3 4 1 10 7 11 35 2 35 -12z"/>
<path d="M350 3471 c0 -6 6 -13 13 -15 6 -2 36 -11 66 -20 62 -19 104 -21 99
-5 -8 25 -178 63 -178 40z"/>
<path d="M7405 3473 c-25 -7 -55 -41 -55 -64 0 -25 35 -42 69 -34 15 3 43 19
62 34 34 29 34 29 15 50 -18 20 -47 25 -91 14z m55 -36 c0 -16 -58 -39 -66
-25 -7 11 -7 11 21 26 27 15 45 15 45 -1z"/>
<path d="M7955 3462 c-62 -21 -75 -29 -75 -47 0 -11 6 -12 23 -6 40 17 125 41
141 41 9 0 16 7 16 15 0 20 -41 19 -105 -3z"/>
<path d="M332 3403 c2 -13 18 -20 53 -25 28 -5 58 -13 67 -18 10 -6 31 -10 47
-10 17 0 32 -4 35 -9 4 -5 25 -12 49 -16 23 -4 49 -11 59 -16 11 -6 18 -4 22
6 6 17 -22 35 -53 35 -12 0 -29 4 -39 9 -9 5 -37 14 -62 20 -25 6 -69 18 -98
26 -69 19 -84 19 -80 -2z"/>
<path d="M8015 3410 c-18 -7 -62 -20 -180 -51 -67 -18 -85 -28 -85 -45 0 -12
5 -15 23 -9 12 3 47 13 77 21 30 9 71 20 90 25 19 6 57 16 85 22 33 8 51 18
53 30 4 19 -26 22 -63 7z"/>
<path d="M1120 3367 c0 -30 18 -46 30 -27 7 11 15 10 44 -4 20 -9 36 -21 36
-26 0 -6 8 -10 19 -10 21 0 34 40 19 62 -6 11 -10 10 -17 -1 -8 -12 -14 -12
-43 2 -18 8 -45 19 -60 22 -25 6 -28 4 -28 -18z"/>
<path d="M310 3338 c0 -10 20 -19 58 -27 31 -7 65 -17 74 -22 20 -10 58 -12
58 -3 0 23 -65 49 -152 61 -29 4 -38 2 -38 -9z"/>
<path d="M7986 3333 c-72 -22 -107 -62 -43 -49 17 4 49 10 70 13 20 3 40 9 43
14 3 5 14 9 25 9 10 0 19 7 19 15 0 19 -47 18 -114 -2z"/>
<path d="M296 3266 c4 -9 17 -16 33 -16 15 0 31 -4 37 -9 5 -5 33 -12 62 -16
44 -6 52 -4 52 9 0 10 -8 16 -21 16 -11 0 -28 4 -37 9 -9 5 -43 12 -75 16 -50
6 -57 5 -51 -9z"/>
<path d="M8025 3268 c-22 -5 -52 -11 -67 -15 -16 -3 -28 -12 -28 -20 0 -13 9
-14 53 -9 28 4 56 11 62 17 5 5 21 9 36 9 15 0 29 7 33 15 6 17 -24 19 -89 3z"/>
<path d="M280 3200 c0 -14 9 -20 38 -25 20 -3 53 -10 73 -15 49 -13 69 -12 69
3 0 16 -55 37 -98 37 -17 0 -34 5 -37 10 -11 18 -45 11 -45 -10z"/>
<path d="M8095 3210 c-11 -5 -37 -9 -57 -9 -20 -1 -40 -5 -43 -11 -3 -5 -15
-10 -26 -10 -10 0 -19 -7 -19 -15 0 -17 18 -19 69 -5 20 5 53 12 74 15 28 5
37 11 37 25 0 22 -5 23 -35 10z"/>
<path d="M260 3137 c0 -17 68 -37 124 -37 19 0 38 -4 41 -10 10 -16 25 -11 25
9 0 15 -12 20 -67 29 -38 6 -80 14 -95 17 -21 6 -28 4 -28 -8z"/>
<path d="M8097 3143 c-4 -3 -35 -12 -70 -18 -47 -8 -63 -15 -65 -29 -3 -16 0
-18 25 -12 15 4 51 11 78 16 65 11 85 19 85 36 0 14 -41 20 -53 7z"/>
<path d="M7550 3095 c0 -20 -46 -30 -76 -16 -31 14 -40 -2 -24 -43 l10 -27 29
20 c18 13 45 21 70 21 45 0 54 16 25 44 -19 20 -34 20 -34 1z"/>
<path d="M250 3067 c0 -20 36 -34 125 -47 44 -6 103 -16 130 -20 248 -43 260
-44 249 -17 -3 8 -34 19 -77 26 -40 7 -92 17 -117 23 -207 45 -310 56 -310 35z"/>
<path d="M8075 3074 c-11 -3 -38 -9 -60 -14 -54 -11 -129 -25 -252 -46 -87
-15 -103 -20 -103 -36 0 -22 -30 -25 245 22 28 5 86 13 130 20 94 13 125 24
125 45 0 15 -36 19 -85 9z"/>
<path d="M1043 3055 c-36 -40 7 -80 84 -80 63 0 83 36 41 75 -26 24 -106 27
-125 5z m107 -41 c0 -17 -17 -18 -58 -3 -19 6 -29 16 -26 24 7 17 84 -2 84
-21z"/>
<path d="M830 3047 c-14 -7 -25 -21 -25 -31 0 -24 40 -54 82 -62 26 -5 37 -1
59 21 l27 27 -24 23 c-30 28 -86 39 -119 22z m85 -37 c4 -6 -10 -10 -35 -10
-25 0 -39 4 -35 10 3 6 19 10 35 10 16 0 32 -4 35 -10z"/>
<path d="M7343 3000 c-4 -15 -14 -20 -39 -20 -18 0 -36 5 -39 10 -11 17 -24
11 -31 -15 -7 -27 10 -55 32 -55 8 0 14 7 14 15 0 9 9 15 24 15 74 0 107 25
74 58 -17 17 -29 15 -35 -8z"/>
<path d="M245 2999 c-8 -12 13 -21 89 -35 88 -17 96 -17 96 0 0 22 -173 56
-185 35z"/>
<path d="M7580 2984 c0 -19 -4 -24 -17 -20 -10 2 -37 8 -60 11 -35 6 -43 4
-43 -9 0 -9 8 -16 18 -16 10 0 22 -4 28 -9 5 -5 35 -12 67 -16 59 -7 66 -2 48
33 -5 9 -12 25 -15 35 -8 26 -26 20 -26 -9z"/>
<path d="M8110 3003 c-68 -5 -130 -24 -130 -39 0 -8 6 -14 13 -14 20 0 168 30
178 36 13 8 11 24 -3 22 -7 -1 -33 -3 -58 -5z"/>
<path d="M1017 2963 c-11 -20 -15 -60 -8 -72 11 -16 30 -6 40 21 7 19 9 19 23
4 9 -9 24 -16 32 -16 9 0 16 -4 16 -9 0 -5 9 -11 21 -14 41 -11 15 28 -36 53
-28 14 -51 28 -53 33 -2 4 -10 7 -17 7 -8 0 -16 -3 -18 -7z"/>
<path d="M230 2920 c0 -15 15 -18 103 -22 87 -4 109 15 31 26 -70 9 -134 7
-134 -4z"/>
<path d="M790 2904 c0 -26 27 -45 39 -27 9 15 71 3 71 -13 0 -8 7 -14 15 -14
8 0 15 8 15 18 0 10 5 23 12 30 18 18 7 22 -76 27 -76 5 -76 5 -76 -21z"/>
<path d="M8033 2923 c-25 -3 -33 -9 -33 -24 0 -14 4 -18 13 -12 6 4 45 10 86
13 47 3 76 10 79 18 4 12 -67 15 -145 5z"/>
<path d="M7300 2903 c-43 -17 -54 -65 -19 -84 43 -23 129 12 129 52 0 32 -64
50 -110 32z m70 -38 c-7 -8 -28 -15 -49 -15 -34 1 -35 2 -17 15 11 8 33 15 49
15 25 0 28 -2 17 -15z"/>
<path d="M7508 2879 c-52 -39 -30 -79 42 -79 68 1 103 37 74 79 -20 28 -79 28
-116 0z m82 -34 c-13 -16 -70 -21 -70 -7 0 16 13 22 48 22 29 0 33 -2 22 -15z"/>
<path d="M217 2862 c-12 -19 18 -29 106 -36 71 -5 87 -4 87 8 0 17 -25 23
-117 32 -44 4 -73 3 -76 -4z"/>
<path d="M8062 2857 c-80 -13 -78 -33 4 -29 67 2 136 21 128 33 -6 11 -49 9
-132 -4z"/>
<path d="M1124 2839 c-4 -6 -30 -9 -64 -7 -33 1 -59 0 -59 -4 -4 -42 -1 -49
18 -38 32 17 75 12 89 -10 11 -18 14 -19 27 -6 8 8 15 28 15 45 0 31 -13 41
-26 20z"/>
<path d="M210 2786 c0 -10 17 -16 58 -21 31 -3 74 -8 95 -11 60 -9 47 19 -16
34 -73 17 -137 16 -137 -2z"/>
<path d="M8058 2787 c-31 -7 -48 -16 -48 -25 0 -12 12 -13 68 -8 99 10 122 16
122 32 0 17 -68 17 -142 1z"/>
<path d="M210 2715 c0 -15 35 -21 210 -34 112 -8 156 -4 139 14 -6 5 -153 20
-276 29 -57 4 -73 2 -73 -9z"/>
<path d="M8055 2724 c-141 -17 -195 -27 -195 -38 0 -15 206 -11 254 5 16 5 44
9 63 9 23 0 33 4 31 13 -5 12 -90 18 -153 11z"/>
<path d="M205 2650 c-11 -18 -2 -21 94 -27 80 -5 91 -4 91 11 0 13 -12 16 -67
16 -38 0 -78 3 -89 6 -12 3 -25 1 -29 -6z"/>
<path d="M8080 2650 c-39 -3 -55 -9 -55 -19 0 -11 15 -14 70 -12 87 3 115 9
115 27 0 14 -14 15 -130 4z"/>
<path d="M200 2565 c0 -12 17 -15 90 -15 73 0 90 3 90 15 0 12 -17 15 -90 15
-73 0 -90 -3 -90 -15z"/>
<path d="M8030 2564 c0 -13 12 -14 88 -8 122 9 127 24 9 24 -81 0 -97 -3 -97
-16z"/>
<path d="M200 2500 c0 -19 7 -20 90 -20 83 0 90 1 90 20 0 19 -7 20 -90 20
-83 0 -90 -1 -90 -20z"/>
<path d="M992 2513 c-7 -2 -17 -14 -23 -25 -14 -27 14 -58 53 -58 19 0 28 -5
28 -16 0 -12 -7 -14 -29 -9 -20 4 -34 1 -45 -10 -21 -21 -20 -38 2 -65 15 -18
22 -21 37 -13 13 8 24 8 36 0 26 -16 69 16 69 52 0 21 -7 31 -27 41 -20 9 -24
14 -13 18 45 16 53 63 15 80 -26 12 -79 15 -103 5z m88 -43 c0 -5 -18 -10 -40
-10 -22 0 -40 5 -40 10 0 6 18 10 40 10 22 0 40 -4 40 -10z m-60 -111 c0 -5
-4 -9 -10 -9 -5 0 -10 7 -10 16 0 8 5 12 10 9 6 -3 10 -10 10 -16z m60 6 c0
-8 -7 -15 -15 -15 -8 0 -15 7 -15 15 0 8 7 15 15 15 8 0 15 -7 15 -15z"/>
<path d="M7523 2513 c-8 -3 -13 -22 -13 -44 0 -32 3 -39 20 -39 11 0 20 5 20
10 0 6 28 10 65 10 36 0 65 2 65 5 0 3 -6 15 -12 28 -7 12 -14 23 -14 25 -1 2
-23 -2 -48 -9 -40 -10 -49 -9 -59 4 -7 8 -18 13 -24 10z"/>
<path d="M8058 2513 c-16 -2 -28 -11 -28 -19 0 -20 175 -21 183 0 3 8 3 17 0
20 -7 6 -110 6 -155 -1z"/>
<path d="M187 2448 c-7 -4 -5 -12 6 -22 12 -12 36 -16 101 -16 78 0 86 2 86
19 0 18 -9 20 -91 23 -50 2 -96 0 -102 -4z"/>
<path d="M8030 2430 c0 -18 7 -20 83 -20 75 1 117 13 117 34 0 3 -45 6 -100 6
-93 0 -100 -1 -100 -20z"/>
<path d="M791 2409 c-44 -9 -62 -37 -43 -65 11 -16 48 -34 72 -34 32 0 80 29
80 48 -1 43 -46 64 -109 51z m73 -44 c-4 -10 -20 -15 -45 -15 -28 0 -39 4 -39
15 0 11 12 15 45 15 35 0 43 -3 39 -15z"/>
<path d="M7312 2394 c-28 -19 -28 -35 1 -62 40 -38 108 -28 132 18 13 25 12
29 -4 44 -23 21 -99 21 -129 0z m98 -29 c0 -11 -11 -15 -40 -15 -29 0 -40 4
-40 15 0 11 11 15 40 15 29 0 40 -4 40 -15z"/>
<path d="M7518 2386 c-14 -32 -5 -53 27 -68 21 -9 28 -9 35 2 5 7 17 11 30 7
28 -7 70 8 70 26 0 7 -9 23 -20 35 -17 17 -32 22 -76 22 -48 0 -56 -3 -66 -24z
m62 -21 c0 -8 -7 -15 -15 -15 -8 0 -15 7 -15 15 0 8 7 15 15 15 8 0 15 -7 15
-15z m50 -1 c0 -8 -4 -12 -10 -9 -5 3 -10 10 -10 16 0 5 5 9 10 9 6 0 10 -7
10 -16z"/>
<path d="M182 2368 c4 -10 67 -14 261 -16 224 -2 257 0 257 13 0 13 -34 15
-261 15 -204 0 -260 -3 -257 -12z"/>
<path d="M7710 2365 c0 -13 36 -15 260 -15 224 0 260 2 260 15 0 13 -36 15
-260 15 -224 0 -260 -2 -260 -15z"/>
<path d="M1085 2290 c-3 -5 -33 -10 -66 -10 -51 0 -59 -3 -59 -19 0 -10 7 -24
15 -31 13 -10 19 -10 33 4 24 21 72 21 72 0 0 -9 7 -14 16 -12 8 2 15 6 15 11
-1 4 -1 21 -1 37 0 29 -13 40 -25 20z"/>
<path d="M7527 2282 c-35 -38 -8 -71 58 -71 52 0 77 19 73 56 -3 27 -6 28 -59
31 -44 2 -59 -1 -72 -16z m94 -12 c5 0 9 -4 9 -10 0 -5 -18 -10 -40 -10 -22 0
-40 4 -40 9 0 11 30 20 48 15 8 -2 18 -4 23 -4z"/>
</g>
</svg>
